#!OML:ASF H:\MichaelJackson\Top Level 1\Subject 1\Session 1\male.ASF
:FULLY-SPECIFIED
:DEGREES
712
root 4.4584 13.3514 12.6708 -140.374 59.095 -158.468
lowerback 21.5203 6.2194 -6.39062
upperback 3.64296 6.72804 -6.06474
thorax -7.90298 3.54401 -4.95582
lowerneck -2.80719 -18.8623 -13.9829
upperneck 1.90482 -26.7254 23.7635
head 6.267 -12.8525 6.79189
rclavicle 1.36764e-013 -7.79236e-014
rhumerus -49.8015 -1.42733 -86.1321
rradius 31.4303
rwrist -20.9338
rhand -26.4651 -25.6464
rfingers 7.12502
rthumb 0.0965196 -415.626
lclavicle 1.36764e-013 -7.79236e-014
lhumerus -2.94432 9.98047 72.5259
lradius 40.3229
lwrist 1.80528
lhand -41.3813 2.1686
lfingers 7.12502
lthumb -14.2991 31.6562
rfemur -31.4874 -33.1851 0.590578
rtibia 57.1177
rfoot -16.0934 -6.56514
rtoes -49.8435
lfemur -61.9698 8.64209 27.0993
ltibia 53.5894
lfoot -24.703 -10.9497
ltoes -30.8382
713
root 4.38885 13.2952 12.8144 -139.573 59.7225 -157.944
lowerback 22.1923 6.31895 -6.3709
upperback 3.91977 6.83384 -6.14642
thorax -7.9295 3.60204 -5.14824
lowerneck -2.88632 -18.7556 -13.9533
upperneck 1.28218 -26.4752 23.9014
head 6.06174 -12.7561 6.88582
rclavicle -4.77083e-015 2.54444e-014
rhumerus -50.0073 -1.0421 -85.9629
rradius 32.7605
rwrist -22.5002
rhand -26.6852 -25.97
rfingers 7.12502
rthumb -0.116022 -415.95
lclavicle -4.77083e-015 2.54444e-014
lhumerus -3.67156 9.94661 72.3273
lradius 41.2317
lwrist 3.11213
lhand -41.5799 2.38656
lfingers 7.12502
lthumb -14.4904 31.8606
rfemur -33.5465 -33.8366 1.59604
rtibia 58.5165
rfoot -17.3867 -7.42732
rtoes -49.8709
lfemur -61.6807 9.02777 27.779
ltibia 52.9315
lfoot -23.9426 -10.3051
ltoes -31.1667
714
root 4.31721 13.2402 12.9528 -138.731 60.4089 -157.423
lowerback 22.8244 6.39969 -6.34615
upperback 4.19457 6.91958 -6.26252
thorax -7.92915 3.65155 -5.37225
lowerneck -2.96149 -18.6464 -13.9194
upperneck 0.645571 -26.2193 24.0479
head 5.8524 -12.6571 6.98368
rclavicle -2.70347e-014 3.02153e-014
rhumerus -50.2517 -0.578966 -85.8915
rradius 34.3127
rwrist -24.4597
rhand -27.0851 -26.4807
rfingers 7.12502
rthumb -0.502309 -416.46
lclavicle -2.70347e-014 3.02153e-014
lhumerus -4.39838 9.86524 72.0895
lradius 42.1784
lwrist 4.39598
lhand -41.7304 2.63057
lfingers 7.12502
lthumb -14.6354 32.0941
rfemur -35.7903 -34.3386 2.59423
rtibia 60.0152
rfoot -18.4267 -8.10984
rtoes -49.8374
lfemur -61.3381 9.42733 28.4139
ltibia 52.2251
lfoot -23.1942 -9.64805
ltoes -31.4581
715
root 4.24407 13.1863 13.0861 -137.904 61.1497 -156.982
lowerback 23.4011 6.44388 -6.34457
upperback 4.46595 6.957 -6.42382
thorax -7.89857 3.68021 -5.61365
lowerneck -3.02231 -18.5248 -13.879
upperneck -0.0066522 -25.9454 24.212
head 5.63566 -12.5499 7.09141
rclavicle -2.8625e-014 -9.70069e-014
rhumerus -50.5272 0.00781287 -85.9474
rradius 36.0603
rwrist -26.6669
rhand -27.6266 -27.065
rfingers 7.12502
rthumb -1.02528 -417.042
lclavicle -2.8625e-014 -9.70069e-014
lhumerus -5.11541 9.79365 71.8068
lradius 43.1409
lwrist 5.56499
lhand -41.8076 2.90684
lfingers 7.12502
lthumb -14.7098 32.365
rfemur -38.1824 -34.683 3.50453
rtibia 61.5889
rfoot -19.2762 -8.51488
rtoes -49.7653
lfemur -60.9632 9.82203 28.9754
ltibia 51.4529
lfoot -22.4624 -8.97216
ltoes -31.7143
716
root 4.17006 13.1331 13.2147 -137.167 61.9352 -156.726
lowerback 23.9144 6.44195 -6.39084
upperback 4.72629 6.92724 -6.63549
thorax -7.84611 3.67953 -5.85826
lowerneck -3.06969 -18.3956 -13.8355
upperneck -0.651026 -25.6624 24.3769
head 5.41815 -12.4386 7.20196
rclavicle -4.77083e-014 -9.54166e-015
rhumerus -50.8389 0.712469 -86.1154
rradius 37.9498
rwrist -28.8606
rhand -28.2055 -27.5795
rfingers 7.12502
rthumb -1.5844 -417.553
lclavicle -4.77083e-014 -9.54166e-015
lhumerus -5.81617 9.75331 71.4959
lradius 44.0912
lwrist 6.5499
lhand -41.8498 3.18056
lfingers 7.12502
lthumb -14.7504 32.6357
rfemur -40.682 -34.9021 4.26221
rtibia 63.203
rfoot -20.0046 -8.62372
rtoes -49.6603
lfemur -60.5958 10.203 29.4264
ltibia 50.6033
lfoot -21.7494 -8.28539
ltoes -31.9447
717
root 4.09624 13.08 13.3386 -136.58 62.7495 -156.701
lowerback 24.3692 6.38943 -6.47618
upperback 4.98557 6.8284 -6.8939
thorax -7.76396 3.64906 -6.10539
lowerneck -3.08804 -18.2603 -13.8241
upperneck -1.29864 -25.3758 24.5882
head 5.20687 -12.3264 7.33314
rclavicle -3.18055e-014 1.1291e-013
rhumerus -51.1839 1.50668 -86.3743
rradius 39.9391
rwrist -30.7749
rhand -28.6916 -27.9183
rfingers 7.12502
rthumb -2.0539 -417.888
lclavicle -3.18055e-014 1.1291e-013
lhumerus -6.47032 9.76531 71.1808
lradius 45.0007
lwrist 7.32846
lhand -41.8791 3.45983
lfingers 7.12502
lthumb -14.7786 32.9129
rfemur -43.2108 -35.0534 4.84131
rtibia 64.8142
rfoot -20.6858 -8.47324
rtoes -49.535
lfemur -60.2443 10.5638 29.7523
ltibia 49.6742
lfoot -21.0619 -7.60216
ltoes -32.1603
718
root 4.0231 13.0267 13.4584 -136.189 63.5857 -156.93
lowerback 24.7818 6.28848 -6.60989
upperback 5.24667 6.66067 -7.18176
thorax -7.66152 3.58882 -6.33223
lowerneck -3.09154 -18.1198 -13.8463
upperneck -1.91877 -25.0862 24.8
head 5.00589 -12.2123 7.46964
rclavicle 1.27222e-014 3.02153e-014
rhumerus -51.5646 2.36338 -86.6734
rradius 41.9782
rwrist -32.2596
rhand -28.976 -28.0213
rfingers 7.12502
rthumb -2.32857 -417.988
lclavicle 1.27222e-014 3.02153e-014
lhumerus -7.07279 9.82922 70.8788
lradius 45.8205
lwrist 7.92564
lhand -41.9597 3.66901
lfingers 7.12502
lthumb -14.8564 33.1164
rfemur -45.7029 -35.1948 5.24145
rtibia 66.3831
rfoot -21.382 -8.13005
rtoes -49.4069
lfemur -59.9126 10.9145 29.9393
ltibia 48.6772
lfoot -20.4014 -6.95328
ltoes -32.373
719
root 3.95174 12.9733 13.5755 -135.929 64.4382 -157.294
lowerback 25.1679 6.16129 -6.78606
upperback 5.51477 6.45401 -7.47014
thorax -7.54305 3.51217 -6.51999
lowerneck -3.13255 -17.9842 -13.8756
upperneck -2.43774 -24.8109 24.936
head 4.83301 -12.0991 7.57606
rclavicle 3.81667e-014 2.38542e-014
rhumerus -51.9823 3.25023 -86.9685
rradius 44.0505
rwrist -33.3252
rhand -29.0336 -27.8928
rfingers 7.12502
rthumb -2.38418 -417.859
lclavicle 3.81667e-014 2.38542e-014
lhumerus -7.61931 9.95607 70.6083
lradius 46.531
lwrist 8.38021
lhand -42.1073 3.79535
lfingers 7.12502
lthumb -14.9985 33.2322
rfemur -48.1026 -35.3395 5.53166
rtibia 67.8776
rfoot -22.1402 -7.65183
rtoes -49.2876
lfemur -59.5561 11.3006 30.0211
ltibia 47.6346
lfoot -19.78 -6.38695
ltoes -32.5851
720
root 3.88199 12.9189 13.6898 -135.808 65.2566 -157.746
lowerback 25.576 6.00221 -6.94367
upperback 5.79948 6.21359 -7.73235
thorax -7.4193 3.42013 -6.6788
lowerneck -3.14098 -17.8292 -13.9316
upperneck -2.95715 -24.5071 25.0434
head 4.64844 -11.9743 7.68603
rclavicle -9.38264e-014 2.70347e-014
rhumerus -52.4542 4.14274 -87.2258
rradius 46.1753
rwrist -34.086
rhand -28.9262 -27.6199
rfingers 7.12502
rthumb -2.2804 -417.587
lclavicle -9.38264e-014 2.70347e-014
lhumerus -8.1153 10.1223 70.3846
lradius 47.1247
lwrist 8.76065
lhand -42.318 3.84731
lfingers 7.12502
lthumb -15.2015 33.2689
rfemur -50.3423 -35.5554 5.77262
rtibia 69.282
rfoot -22.952 -7.14161
rtoes -49.1871
lfemur -59.1863 11.7203 30.0237
ltibia 46.5764
lfoot -19.1928 -5.96054
ltoes -32.7921
721
root 3.81389 12.8633 13.8015 -135.79 66.017 -158.188
lowerback 26.0409 5.81886 -7.04661
upperback 6.11073 5.95697 -7.94416
thorax -7.29491 3.32023 -6.80957
lowerneck -3.14851 -17.6603 -13.992
upperneck -3.44523 -24.1819 25.0685
head 4.45681 -11.8383 7.77592
rclavicle -4.77083e-015 -1.19271e-013
rhumerus -52.99 5.02576 -87.416
rradius 48.3865
rwrist -34.7484
rhand -28.7623 -27.3177
rfingers 7.12502
rthumb -2.12215 -417.287
lclavicle -4.77083e-015 -1.19271e-013
lhumerus -8.57448 10.3154 70.218
lradius 47.6172
lwrist 9.12397
lhand -42.5546 3.8503
lfingers 7.12502
lthumb -15.4294 33.2544
rfemur -52.3806 -35.8638 6.02119
rtibia 70.5961
rfoot -23.8118 -6.63686
rtoes -49.1412
lfemur -58.7838 12.1796 29.98
ltibia 45.5332
lfoot -18.6432 -5.71257
ltoes -32.993
722
root 3.74703 12.8064 13.9106 -135.8 66.6905 -158.516
lowerback 26.5781 5.61641 -7.04107
upperback 6.44932 5.70338 -8.08716
thorax -7.17284 3.2204 -6.92857
lowerneck -3.1621 -17.4833 -14.0556
upperneck -3.88758 -23.8451 24.9911
head 4.26218 -11.6944 7.83648
rclavicle 7.95139e-015 -2.70347e-014
rhumerus -53.5955 5.87036 -87.5124
rradius 50.6947
rwrist -35.4566
rhand -28.6337 -27.0963
rfingers 7.12502
rthumb -1.99793 -417.067
lclavicle 7.95139e-015 -2.70347e-014
lhumerus -9.01573 10.5094 70.1253
lradius 48.0384
lwrist 9.49673
lhand -42.7673 3.85112
lfingers 7.12502
lthumb -15.6342 33.2394
rfemur -54.2213 -36.2684 6.33227
rtibia 71.8365
rfoot -24.7013 -6.0989
rtoes -49.1414
lfemur -58.3498 12.688 29.9338
ltibia 44.5305
lfoot -18.1345 -5.66816
ltoes -33.1731
723
root 3.68121 12.7479 14.0168 -135.804 67.2722 -158.689
lowerback 27.1845 5.3865 -6.92627
upperback 6.81095 5.44321 -8.16248
thorax -7.05664 3.11617 -7.0338
lowerneck -3.17747 -17.2828 -14.0661
upperneck -4.29557 -23.4726 24.7776
head 4.04453 -11.5321 7.85599
rclavicle -3.18055e-014 -1.03368e-014
rhumerus -54.2597 6.7129 -87.5403
rradius 53.0879
rwrist -36.2947
rhand -28.5992 -27.0123
rfingers 7.12502
rthumb -1.96461 -416.983
lclavicle -3.18055e-014 -1.03368e-014
lhumerus -9.4796 10.7092 70.0708
lradius 48.4376
lwrist 9.92183
lhand -42.836 3.97733
lfingers 7.12502
lthumb -15.7004 33.3604
rfemur -55.8834 -36.76 6.71543
rtibia 73.0239
rfoot -25.5957 -5.46888
rtoes -49.1657
lfemur -57.8865 13.2321 29.9094
ltibia 43.5868
lfoot -17.6706 -5.80989
ltoes -33.3252
